# xmcd
# Copyright (C) 1995-1998 Ti Kan
#
# Track frame offsets:
#       150
#       16477
#       31800
#       47950
#       65712
#       84222
#       104445
#       122267
#       137120
#       148237
#       164720
#       182907
#
# Disc length: 2637 seconds
#
# Revision: 2
# Processed by: cddbd v1.5.2PL0 Copyright (c) Steve Scherf et al.
# Submitted via: CD-Transfer v1.0
#
DISCID=ab0a4b0c
DTITLE=Kurt Ackermann - Tell Me
DYEAR=2006
DGENRE=
TTITLE0=Bored Beyond Belief
TTITLE1=Eleanor Rigby
TTITLE2=Monday Morning Mirror Monologues
TTITLE3=Testing My Temper
TTITLE4=I'll Be Waiting Here For You
TTITLE5=Blue Door
TTITLE6=Dog Walk
TTITLE7=Appreciate
TTITLE8=Tell Me
TTITLE9=Final Days Of The Year
TTITLE10=Hold The Line
TTITLE11=New Way
EXTD=
EXTT0=
EXTT1=
EXTT2=
EXTT3=
EXTT4=
EXTT5=
EXTT6=
EXTT7=
EXTT8=
EXTT9=
EXTT10=
EXTT11=
PLAYORDER=
